<svg width="53" height="64" viewBox="0 0 53 64" fill="none" xmlns="http://www.w3.org/2000/svg"> <path d="M9.65906 58.1158C33.6395 67.3003 46.538 56.9511 49.9898 50.6284" stroke="white" stroke-width="4.17214" stroke-linecap="round"/> <path d="M50.5113 0.0412598V32.6361C50.5113 35.0566 49.5498 37.378 47.8382 39.0896C46.1267 40.8011 43.8053 41.7627 41.3848 41.7627C38.9642 41.7627 36.6429 40.8011 34.9313 39.0896C33.2197 37.378 32.2582 35.0566 32.2582 32.6361C32.2582 30.2156 33.2197 27.8942 34.9313 26.1827C36.6429 24.4711 38.9642 23.5096 41.3848 23.5096C42.7929 23.5096 44.1227 23.8225 45.2961 24.3961V9.08959L19.2203 14.6438V37.8513C19.2203 40.2718 18.2587 42.5932 16.5471 44.3048C14.8356 46.0163 12.5142 46.9779 10.0937 46.9779C7.67318 46.9779 5.3518 46.0163 3.64024 44.3048C1.92868 42.5932 0.967133 40.2718 0.967133 37.8513C0.967133 35.4308 1.92868 33.1094 3.64024 31.3979C5.3518 29.6863 7.67318 28.7247 10.0937 28.7247C11.5018 28.7247 12.8317 29.0377 14.0051 29.6113V7.86403L50.5113 0.0412598Z" fill="white"/> </svg>