<svg width="99" height="96" viewBox="0 0 99 96" fill="none" xmlns="http://www.w3.org/2000/svg">
<path d="M63.9375 44C67.3548 44 70.125 41.3137 70.125 38C70.125 34.6863 67.3548 32 63.9375 32C60.5202 32 57.75 34.6863 57.75 38C57.75 41.3137 60.5202 44 63.9375 44Z" fill="black"/>
<path d="M35.0625 44C38.4798 44 41.25 41.3137 41.25 38C41.25 34.6863 38.4798 32 35.0625 32C31.6452 32 28.875 34.6863 28.875 38C28.875 41.3137 31.6452 44 35.0625 44Z" fill="black"/>
<path d="M49.4587 8C26.6887 8 8.25 25.92 8.25 48C8.25 70.08 26.6887 88 49.4587 88C72.27 88 90.75 70.08 90.75 48C90.75 25.92 72.27 8 49.4587 8ZM49.5 80C31.2675 80 16.5 65.68 16.5 48C16.5 30.32 31.2675 16 49.5 16C67.7325 16 82.5 30.32 82.5 48C82.5 65.68 67.7325 80 49.5 80ZM49.5 56C39.8888 56 31.68 61.8 28.38 70H35.2688C38.115 65.24 43.395 62 49.5 62C55.605 62 60.8437 65.24 63.7312 70H70.62C67.32 61.8 59.1112 56 49.5 56V56Z" fill="black"/>
</svg>
